<svg width="70" height="65" viewBox="0 0 70 65" fill="none" xmlns="http://www.w3.org/2000/svg">
<path fill-rule="evenodd" clip-rule="evenodd" d="M70 0H32.5C14.5507 0 0 14.5507 0 32.5C0 50.4493 14.5507 65 32.5 65H70V0Z" fill="black"/>
<rect x="10" y="10" width="45" height="45" rx="22.5" fill="white"/>
<path d="M25.7969 32.8594C25.7969 33.5156 26.3281 34.0469 26.9844 34.0469H31.3203V38.3828C31.3203 39.0312 31.8438 39.5703 32.5 39.5703C33.1562 39.5703 33.6875 39.0312 33.6875 38.3828V34.0469H38.0234C38.6719 34.0469 39.2031 33.5156 39.2031 32.8594C39.2031 32.2109 38.6719 31.6797 38.0234 31.6797H33.6875V27.3438C33.6875 26.6953 33.1562 26.1562 32.5 26.1562C31.8438 26.1562 31.3203 26.6953 31.3203 27.3438V31.6797H26.9844C26.3281 31.6797 25.7969 32.2109 25.7969 32.8594Z" fill="black"/>
</svg>
