<svg width="70" height="70" viewBox="0 0 70 70" fill="none" xmlns="http://www.w3.org/2000/svg">
<g filter="url(#filter0_d_318_13117)">
<mask id="path-1-inside-1_318_13117" fill="white">
<path fill-rule="evenodd" clip-rule="evenodd" d="M35.0001 59.8534C41.8629 66.7155 52.989 66.7153 59.8515 59.8526C66.714 52.99 66.7143 41.8636 59.8523 35.0007L59.8529 35.0001C66.7157 28.1372 66.7157 17.0103 59.8529 10.1474C52.9901 3.28447 41.8634 3.28447 35.0007 10.1474L35.0001 10.1479L34.9993 10.1472C28.1365 3.28428 17.0098 3.28428 10.1471 10.1472C3.28431 17.0101 3.28431 28.137 10.1471 34.9999L10.1478 35.0007C3.28566 41.8636 3.28586 52.9901 10.1484 59.8528C17.011 66.7155 28.1373 66.7157 35.0001 59.8534Z"/>
</mask>
<path fill-rule="evenodd" clip-rule="evenodd" d="M35.0001 59.8534C41.8629 66.7155 52.989 66.7153 59.8515 59.8526C66.714 52.99 66.7143 41.8636 59.8523 35.0007L59.8529 35.0001C66.7157 28.1372 66.7157 17.0103 59.8529 10.1474C52.9901 3.28447 41.8634 3.28447 35.0007 10.1474L35.0001 10.1479L34.9993 10.1472C28.1365 3.28428 17.0098 3.28428 10.1471 10.1472C3.28431 17.0101 3.28431 28.137 10.1471 34.9999L10.1478 35.0007C3.28566 41.8636 3.28586 52.9901 10.1484 59.8528C17.011 66.7155 28.1373 66.7157 35.0001 59.8534Z" fill="#FF7C7C"/>
<path d="M59.8515 59.8526L64.8013 64.8023L59.8515 59.8526ZM35.0001 59.8534L39.9496 54.9034L35 49.9543L30.0505 54.9035L35.0001 59.8534ZM59.8523 35.0007L54.8944 30.0591L49.9613 35.0084L54.9022 39.9501L59.8523 35.0007ZM59.8529 35.0001L54.9031 30.0504L54.895 30.0585L59.8529 35.0001ZM59.8529 10.1474L54.9031 15.0971V15.0971L59.8529 10.1474ZM35.0007 10.1474L30.0509 5.19766L30.0489 5.19966L35.0007 10.1474ZM35.0001 10.1479L30.0519 15.0992L35.0036 20.0479L39.9519 15.0956L35.0001 10.1479ZM34.9993 10.1472L30.0495 15.0969L30.0511 15.0984L34.9993 10.1472ZM10.1471 10.1472L5.19727 5.19747L5.19727 5.19747L10.1471 10.1472ZM10.1471 34.9999L5.19727 39.9496L5.19732 39.9496L10.1471 34.9999ZM10.1478 35.0007L15.0979 39.9501L20.0471 35.0004L15.0976 30.0509L10.1478 35.0007ZM10.1484 59.8528L15.0982 54.9031V54.9031L10.1484 59.8528ZM54.9017 54.9029C50.7728 59.0319 44.0787 59.0321 39.9496 54.9034L30.0506 64.8034C39.6471 74.399 55.2053 74.3986 64.8013 64.8023L54.9017 54.9029ZM54.9022 39.9501C59.0309 44.0793 59.0307 50.7739 54.9017 54.9029L64.8013 64.8023C74.3973 55.2061 74.3977 39.6479 64.8024 30.0513L54.9022 39.9501ZM54.895 30.0585L54.8944 30.0591L64.8102 39.9423L64.8108 39.9417L54.895 30.0585ZM54.9031 15.0971C59.0323 19.2263 59.0323 25.9212 54.9031 30.0504L64.8027 39.9498C74.3991 30.3532 74.3991 14.7942 64.8027 5.19766L54.9031 15.0971ZM39.9505 15.0971C44.0795 10.9679 50.774 10.9679 54.9031 15.0971L64.8027 5.19766C55.2063 -4.39897 39.6473 -4.39896 30.0509 5.19766L39.9505 15.0971ZM39.9519 15.0956L39.9524 15.0951L30.0489 5.19966L30.0483 5.20024L39.9519 15.0956ZM30.0511 15.0984L30.0519 15.0992L39.9483 5.19667L39.9475 5.19589L30.0511 15.0984ZM15.0969 15.0969C19.2259 10.9677 25.9204 10.9677 30.0495 15.0969L39.9491 5.19747C30.3527 -4.39916 14.7937 -4.39916 5.19727 5.19747L15.0969 15.0969ZM15.0969 30.0502C10.9677 25.921 10.9677 19.2261 15.0969 15.0969L5.19727 5.19747C-4.39909 14.794 -4.39909 30.3531 5.19727 39.9496L15.0969 30.0502ZM15.0976 30.0509L15.0968 30.0502L5.19732 39.9496L5.19809 39.9504L15.0976 30.0509ZM15.0982 54.9031C10.9692 50.774 10.9691 44.0794 15.0979 39.9501L5.19781 30.0512C-4.39774 39.6478 -4.39747 55.2062 5.19862 64.8025L15.0982 54.9031ZM30.0505 54.9035C25.9214 59.0323 19.2272 59.0322 15.0982 54.9031L5.19862 64.8025C14.7948 74.3989 30.3531 74.3991 39.9496 64.8033L30.0505 54.9035Z" fill="white" mask="url(#path-1-inside-1_318_13117)"/>
</g>
<rect x="24" y="26" width="2.5" height="4" rx="1.25" fill="black"/>
<rect x="36" y="26" width="2.5" height="4" rx="1.25" fill="black"/>
<rect x="38.5" y="32" width="2.5" height="14.5" rx="1.25" transform="rotate(90 38.5 32)" fill="black"/>
<defs>
<filter id="filter0_d_318_13117" x="0" y="0" width="70" height="70" filterUnits="userSpaceOnUse" color-interpolation-filters="sRGB">
<feFlood flood-opacity="0" result="BackgroundImageFix"/>
<feColorMatrix in="SourceAlpha" type="matrix" values="0 0 0 0 0 0 0 0 0 0 0 0 0 0 0 0 0 0 127 0" result="hardAlpha"/>
<feOffset/>
<feGaussianBlur stdDeviation="2.5"/>
<feComposite in2="hardAlpha" operator="out"/>
<feColorMatrix type="matrix" values="0 0 0 0 0 0 0 0 0 0 0 0 0 0 0 0 0 0 0.1 0"/>
<feBlend mode="normal" in2="BackgroundImageFix" result="effect1_dropShadow_318_13117"/>
<feBlend mode="normal" in="SourceGraphic" in2="effect1_dropShadow_318_13117" result="shape"/>
</filter>
</defs>
</svg>
