<svg width="56" height="55" viewBox="0 0 56 55" fill="none" xmlns="http://www.w3.org/2000/svg">
<g filter="url(#filter0_d_318_13175)">
<mask id="path-1-inside-1_318_13175" fill="white">
<path fill-rule="evenodd" clip-rule="evenodd" d="M9.85885 27.5005C4.71235 32.6478 4.71254 40.9925 9.85943 46.1395C15.0063 51.2865 23.3509 51.2867 28.4981 46.1401C33.6452 51.2868 41.9899 51.2866 47.1368 46.1396C52.2837 40.9926 52.2839 32.6478 47.1373 27.5005L47.1378 27.5C52.2849 22.3528 52.2849 14.0076 47.1378 8.86039C41.9908 3.71321 33.6457 3.7132 28.4986 8.86038L28.4981 8.86096L28.4976 8.86047C23.3505 3.71329 15.0054 3.71328 9.85836 8.86046C4.71128 14.0076 4.71128 22.3529 9.85835 27.5L9.85885 27.5005Z"/>
</mask>
<path fill-rule="evenodd" clip-rule="evenodd" d="M9.85885 27.5005C4.71235 32.6478 4.71254 40.9925 9.85943 46.1395C15.0063 51.2865 23.3509 51.2867 28.4981 46.1401C33.6452 51.2868 41.9899 51.2866 47.1368 46.1396C52.2837 40.9926 52.2839 32.6478 47.1373 27.5005L47.1378 27.5C52.2849 22.3528 52.2849 14.0076 47.1378 8.86039C41.9908 3.71321 33.6457 3.7132 28.4986 8.86038L28.4981 8.86096L28.4976 8.86047C23.3505 3.71329 15.0054 3.71328 9.85836 8.86046C4.71128 14.0076 4.71128 22.3529 9.85835 27.5L9.85885 27.5005Z" fill="#FF7C7C"/>
<path d="M9.85943 46.1395L6.32386 49.675H6.32386L9.85943 46.1395ZM9.85885 27.5005L13.3946 31.0358L16.928 27.502L13.3961 23.9667L9.85885 27.5005ZM28.4981 46.1401L32.0334 42.6044L28.4981 39.0694L24.9627 42.6044L28.4981 46.1401ZM47.1368 46.1396L43.6012 42.6041L47.1368 46.1396ZM47.1373 27.5005L43.6017 23.965L40.0664 27.5003L43.6015 31.0359L47.1373 27.5005ZM47.1378 27.5L50.6734 31.0355L50.6734 31.0355L47.1378 27.5ZM47.1378 8.86039L50.6734 5.32489V5.32489L47.1378 8.86039ZM28.4986 8.86038L32.0334 12.3966L32.0342 12.3959L28.4986 8.86038ZM28.4981 8.86096L24.9608 12.3948L28.4956 15.933L32.0329 12.3972L28.4981 8.86096ZM28.4976 8.86047L32.0348 5.32664L32.0331 5.32497L28.4976 8.86047ZM9.85836 8.86046L6.32279 5.32496L6.32279 5.32496L9.85836 8.86046ZM9.85835 27.5L13.3956 23.9662L13.3939 23.9645L9.85835 27.5ZM13.395 42.604C10.2006 39.4096 10.2005 34.2304 13.3946 31.0358L6.32307 23.9652C-0.775788 31.0651 -0.775531 42.5755 6.32386 49.675L13.395 42.604ZM24.9627 42.6044C21.7682 45.7985 16.5893 45.7984 13.395 42.604L6.32386 49.675C13.4233 56.7746 24.9336 56.7749 32.0334 49.6758L24.9627 42.6044ZM43.6012 42.6041C40.4069 45.7985 35.2279 45.7986 32.0334 42.6044L24.9627 49.6758C32.0624 56.775 43.5729 56.7747 50.6723 49.6751L43.6012 42.6041ZM43.6015 31.0359C46.7957 34.2304 46.7956 39.4096 43.6012 42.6041L50.6723 49.6751C57.7718 42.5755 57.772 31.0651 50.673 23.9652L43.6015 31.0359ZM43.6023 23.9644L43.6017 23.965L50.6728 31.0361L50.6734 31.0355L43.6023 23.9644ZM43.6023 12.3959C46.7968 15.5904 46.7968 20.7699 43.6023 23.9645L50.6734 31.0355C57.7731 23.9357 57.7731 12.4247 50.6734 5.32489L43.6023 12.3959ZM32.0342 12.3959C35.2287 9.20137 40.4078 9.20137 43.6023 12.3959L50.6734 5.32489C43.5737 -1.77496 32.0628 -1.77497 24.9631 5.32488L32.0342 12.3959ZM32.0329 12.3972L32.0334 12.3966L24.9638 5.32412L24.9633 5.3247L32.0329 12.3972ZM24.9603 12.3943L24.9608 12.3948L32.0353 5.32714L32.0348 5.32665L24.9603 12.3943ZM13.3939 12.396C16.5884 9.20145 21.7675 9.20145 24.962 12.396L32.0331 5.32497C24.9334 -1.77488 13.4225 -1.77488 6.32279 5.32496L13.3939 12.396ZM13.3939 23.9645C10.1994 20.77 10.1994 15.5905 13.3939 12.396L6.32279 5.32496C-0.776862 12.4248 -0.77687 23.9357 6.32278 31.0355L13.3939 23.9645ZM13.3961 23.9667L13.3956 23.9662L6.32114 31.0339L6.32164 31.0344L13.3961 23.9667Z" fill="white" mask="url(#path-1-inside-1_318_13175)"/>
</g>
<rect x="18.998" y="20" width="2" height="3.5" rx="1" fill="black"/>
<rect x="28.998" y="20" width="2" height="3.5" rx="1" fill="black"/>
<rect x="30.998" y="25" width="2" height="12" rx="1" transform="rotate(90 30.998 25)" fill="black"/>
<defs>
<filter id="filter0_d_318_13175" x="0.998047" y="0" width="55" height="55" filterUnits="userSpaceOnUse" color-interpolation-filters="sRGB">
<feFlood flood-opacity="0" result="BackgroundImageFix"/>
<feColorMatrix in="SourceAlpha" type="matrix" values="0 0 0 0 0 0 0 0 0 0 0 0 0 0 0 0 0 0 127 0" result="hardAlpha"/>
<feOffset/>
<feGaussianBlur stdDeviation="2.5"/>
<feComposite in2="hardAlpha" operator="out"/>
<feColorMatrix type="matrix" values="0 0 0 0 0 0 0 0 0 0 0 0 0 0 0 0 0 0 0.1 0"/>
<feBlend mode="normal" in2="BackgroundImageFix" result="effect1_dropShadow_318_13175"/>
<feBlend mode="normal" in="SourceGraphic" in2="effect1_dropShadow_318_13175" result="shape"/>
</filter>
</defs>
</svg>
