<?xml version="1.0" encoding="UTF-8"?><svg id="Layer_2" xmlns="http://www.w3.org/2000/svg" viewBox="0 0 120 120"><defs><style>.cls-1{fill:#fff;}.cls-2{fill:#6edb5b;}</style></defs><g id="Layer_1-2"><g><g><path class="cls-2" d="M60,7h0c29.27,0,53,23.73,53,53h0c0,29.27-23.73,53-53,53h0c-29.27,0-53-23.73-53-53h0C7,30.73,30.73,7,60,7Z"/><path class="cls-1" d="M60,120C26.92,120,0,93.08,0,60S26.92,0,60,0s60,26.92,60,60-26.92,60-60,60Zm0-106c-25.36,0-46,20.64-46,46s20.64,46,46,46,46-20.64,46-46S85.36,14,60,14Z"/></g><path d="M34.5,42h0c1.38,0,2.5,1.12,2.5,2.5v3c0,1.38-1.12,2.5-2.5,2.5h0c-1.38,0-2.5-1.12-2.5-2.5v-3c0-1.38,1.12-2.5,2.5-2.5Z"/><path d="M58.5,42h0c1.38,0,2.5,1.12,2.5,2.5v3c0,1.38-1.12,2.5-2.5,2.5h0c-1.38,0-2.5-1.12-2.5-2.5v-3c0-1.38,1.12-2.5,2.5-2.5Z"/><path d="M61,56.5h0c0,1.38-1.12,2.5-2.5,2.5h-24c-1.38,0-2.5-1.12-2.5-2.5h0c0-1.38,1.12-2.5,2.5-2.5h24c1.38,0,2.5,1.12,2.5,2.5Z"/></g></g></svg>