<svg width="301" height="500" viewBox="0 0 301 500" fill="none" xmlns="http://www.w3.org/2000/svg">
<path fill-rule="evenodd" clip-rule="evenodd" d="M16.5156 0C7.67907 0 0.515625 7.16343 0.515625 16V384.802C0.515625 392.261 5.62059 398.529 12.5275 400.301C5.62059 402.073 0.515625 408.34 0.515625 415.8V484C0.515625 492.837 7.67907 500 16.5156 500H284.516C293.352 500 300.516 492.837 300.516 484V415.8C300.516 408.34 295.411 402.073 288.504 400.301C295.411 398.529 300.516 392.261 300.516 384.802V16C300.516 7.16344 293.352 0 284.516 0H16.5156Z" fill="white"/>
<line x1="14.0156" y1="400.302" x2="287.016" y2="400.302" stroke="#E2E2E2" stroke-linecap="round" stroke-dasharray="15 15"/>
</svg>
