<svg width="120" height="120" viewBox="0 0 120 120" fill="none" xmlns="http://www.w3.org/2000/svg">
<g clip-path="url(#clip0_965_17024)">
<path fill-rule="evenodd" clip-rule="evenodd" d="M84.8492 112.04C77.5892 112.04 70.7592 109.21 65.6292 104.08L59.9992 98.4499L54.3692 104.08C49.2292 109.21 42.4092 112.04 35.1492 112.04C27.8892 112.04 21.0592 109.21 15.9192 104.08C5.31922 93.4799 5.31922 76.2299 15.9192 65.6299L21.5492 59.9999L15.9192 54.3699C10.7792 49.2299 7.94922 42.4099 7.94922 35.1399C7.94922 27.8699 10.7792 21.0499 15.9092 15.9099C21.0492 10.7699 27.8692 7.94994 35.1392 7.94994C42.4092 7.94994 49.2292 10.7799 54.3692 15.9099L54.6092 16.1499L60.1992 20.8499L65.4892 16.0399L65.6292 15.8999C70.7692 10.7599 77.5892 7.93994 84.8592 7.93994C92.1292 7.93994 98.9492 10.7699 104.089 15.8999C109.229 21.0399 112.049 27.8599 112.049 35.1299C112.049 42.3999 109.219 49.2199 104.089 54.3599L98.5292 60.0499L104.089 65.6099C114.689 76.2099 114.689 93.4599 104.089 104.06C98.9492 109.2 92.1292 112.02 84.8592 112.02L84.8492 112.04Z" fill="#FF7C7C"/>
<path d="M84.8497 15.91C89.9897 15.91 94.8197 17.91 98.4497 21.54C105.95 29.04 105.95 41.24 98.4497 48.74L87.1997 59.99L98.4497 71.24C105.95 78.74 105.95 90.94 98.4497 98.44C94.8197 102.07 89.9897 104.07 84.8497 104.07C79.7097 104.07 74.8797 102.07 71.2497 98.44L59.9997 87.19L48.7497 98.44C45.1197 102.07 40.2897 104.07 35.1497 104.07C30.0097 104.07 25.1797 102.07 21.5497 98.44C14.0497 90.94 14.0497 78.74 21.5497 71.24L33.0597 59.72L21.4297 48.62C17.8697 45 15.9097 40.22 15.9097 35.13C15.9097 30.04 17.9097 25.16 21.5397 21.53C25.1697 17.9 29.9997 15.9 35.1397 15.9C40.2797 15.9 45.1097 17.9 48.7397 21.53L49.1597 21.95L49.6097 22.33L60.6197 31.82L71.0697 21.72L71.1697 21.63L71.2697 21.53C74.8997 17.9 79.7297 15.9 84.8697 15.9M84.8697 -0.0100098C75.8797 -0.0100098 66.8797 3.41999 60.0197 10.28C53.1397 3.42999 44.1397 -9.76585e-06 35.1497 -9.76585e-06C26.1597 -9.76585e-06 17.1597 3.42999 10.2897 10.29C-3.44031 24.02 -3.44031 46.27 10.2897 60C-3.43031 73.73 -3.43031 95.98 10.2897 109.71C17.1497 116.57 26.1497 120 35.1397 120C44.1297 120 53.1297 116.57 59.9897 109.71C66.8497 116.57 75.8497 120 84.8397 120C93.8297 120 102.83 116.57 109.69 109.71C123.42 95.98 123.42 73.73 109.69 60.01C123.42 46.28 123.42 24.03 109.69 10.3C102.84 3.42999 93.8497 -9.76585e-06 84.8497 -9.76585e-06L84.8697 -0.0100098Z" fill="white"/>
<path d="M43 40C44.66 40 46 41.34 46 43V46.6C46 48.26 44.66 49.6 43 49.6C41.34 49.6 40 48.26 40 46.6V43C40 41.34 41.34 40 43 40Z" fill="black"/>
<path d="M71 40C72.66 40 74 41.34 74 43V46.6C74 48.26 72.66 49.6 71 49.6C69.34 49.6 68 48.26 68 46.6V43C68 41.34 69.34 40 71 40Z" fill="black"/>
<path d="M74 59C74 60.66 72.66 62 71 62H43C41.34 62 40 60.66 40 59C40 57.34 41.34 56 43 56H71C72.66 56 74 57.34 74 59Z" fill="black"/>
</g>
<defs>
<clipPath id="clip0_965_17024">
<rect width="120" height="120" fill="white"/>
</clipPath>
</defs>
</svg>
