<?xml version="1.0" encoding="UTF-8"?><svg id="Layer_2" xmlns="http://www.w3.org/2000/svg" viewBox="0 0 120 120"><defs><style>.cls-1{fill:#fff;}.cls-2{fill:#ff7c7c;}</style></defs><g id="Layer_1-2"><g><g><path class="cls-2" d="M84.63,113.01c-7.42,0-14.44-2.84-19.77-8l-4.86-4.7-4.86,4.7c-5.33,5.16-12.35,8-19.77,8s-14.71-2.95-20.07-8.31c-10.89-10.89-11.03-28.76-.32-39.84l4.7-4.86-4.7-4.86c-10.71-11.08-10.57-28.95,.32-39.84,5.36-5.36,12.49-8.31,20.07-8.31s14.44,2.84,19.77,8l4.86,4.7,4.86-4.7c5.33-5.16,12.35-8,19.77-8s14.71,2.95,20.07,8.31c10.89,10.89,11.03,28.76,.32,39.84l-4.7,4.86,4.7,4.86c10.71,11.08,10.57,28.95-.32,39.84-5.36,5.36-12.49,8.31-20.07,8.31Z"/><path class="cls-1" d="M84.63,0V13.98c5.72,0,11.09,2.23,15.13,6.27,8.21,8.21,8.31,21.68,.24,30.03l-9.4,9.72,9.4,9.72c8.08,8.35,7.97,21.82-.24,30.03-4.04,4.04-9.41,6.27-15.12,6.27,0,0,0,0,0,0-5.59,0-10.89-2.14-14.91-6.03l-9.72-9.4-9.72,9.4c-4.02,3.89-9.31,6.03-14.91,6.03s-11.08-2.23-15.12-6.27c-8.21-8.21-8.31-21.68-.24-30.03l9.4-9.72-9.4-9.72c-8.08-8.35-7.97-21.82,.24-30.03,4.04-4.04,9.41-6.27,15.12-6.27,5.59,0,10.89,2.14,14.91,6.03l9.72,9.4,9.72-9.4c4.02-3.89,9.31-6.03,14.9-6.03V0M84.63,0c-8.88,0-17.76,3.32-24.63,9.96C53.14,3.32,44.25,0,35.37,0,26.32,0,17.27,3.45,10.36,10.36c-13.69,13.69-13.81,35.78-.4,49.64-13.41,13.86-13.29,35.95,.4,49.64h0c6.91,6.91,15.96,10.36,25.01,10.36s17.76-3.32,24.63-9.96c6.86,6.64,15.75,9.96,24.63,9.96s18.1-3.45,25.01-10.36h0c13.69-13.69,13.81-35.78,.4-49.64,13.41-13.86,13.29-35.95-.4-49.64h0C102.73,3.45,93.68,0,84.63,0h0Z"/></g><path d="M40.13,41.31h0c1.38,0,2.5,1.12,2.5,2.5v3c0,1.38-1.12,2.5-2.5,2.5h0c-1.38,0-2.5-1.12-2.5-2.5v-3c0-1.38,1.12-2.5,2.5-2.5Z"/><path d="M64.1,41.31h0c1.38,0,2.5,1.12,2.5,2.5v3c0,1.38-1.12,2.5-2.5,2.5h0c-1.38,0-2.5-1.12-2.5-2.5v-3c0-1.38,1.12-2.5,2.5-2.5Z"/><path d="M66.59,55.79h0c0,1.38-1.12,2.5-2.5,2.5h-23.97c-1.38,0-2.5-1.12-2.5-2.5h0c0-1.38,1.12-2.5,2.5-2.5h23.97c1.38,0,2.5,1.12,2.5,2.5Z"/></g></g></svg>