<svg width="130" height="131" viewBox="0 0 130 131" fill="none" xmlns="http://www.w3.org/2000/svg">
<g filter="url(#filter0_d_318_12763)">
<mask id="path-1-inside-1_318_12763" fill="white">
<path fill-rule="evenodd" clip-rule="evenodd" d="M65.0004 114.708C78.7261 128.432 100.978 128.432 114.703 114.706C128.428 100.981 128.429 78.7283 114.705 65.0023L114.706 65.0014C128.431 51.2754 128.431 29.0213 114.706 15.2954C100.98 1.56944 78.7268 1.56944 65.0013 15.2954L65.0004 15.2963L64.9986 15.2944C51.2731 1.56852 29.0196 1.56852 15.2941 15.2944C1.56862 29.0204 1.56862 51.2745 15.2941 65.0004L15.2959 65.0023C1.57133 78.7283 1.57163 100.982 15.2968 114.707C29.0221 128.433 51.2748 128.433 65.0004 114.708Z"/>
</mask>
<path fill-rule="evenodd" clip-rule="evenodd" d="M65.0004 114.708C78.7261 128.432 100.978 128.432 114.703 114.706C128.428 100.981 128.429 78.7283 114.705 65.0023L114.706 65.0014C128.431 51.2754 128.431 29.0213 114.706 15.2954C100.98 1.56944 78.7268 1.56944 65.0013 15.2954L65.0004 15.2963L64.9986 15.2944C51.2731 1.56852 29.0196 1.56852 15.2941 15.2944C1.56862 29.0204 1.56862 51.2745 15.2941 65.0004L15.2959 65.0023C1.57133 78.7283 1.57163 100.982 15.2968 114.707C29.0221 128.433 51.2748 128.433 65.0004 114.708Z" fill="#FF7C7C"/>
<path d="M114.703 114.706L121.774 121.777L114.703 114.706ZM65.0004 114.708L72.0711 107.637L65.0002 100.567L57.9295 107.637L65.0004 114.708ZM114.705 65.0023L107.619 57.9463L100.578 65.0167L107.633 72.0727L114.705 65.0023ZM114.706 65.0014L107.635 57.9304L107.627 57.9379L107.62 57.9454L114.706 65.0014ZM114.706 15.2954L121.777 8.22441V8.22441L114.706 15.2954ZM65.0013 15.2954L57.9301 8.22441L57.9265 8.22806L65.0013 15.2954ZM65.0004 15.2963L57.9294 22.3673L65.0042 29.4422L72.0753 22.3636L65.0004 15.2963ZM64.9986 15.2944L57.9274 22.3654L57.9275 22.3655L64.9986 15.2944ZM15.2941 15.2944L8.22296 8.22349L15.2941 15.2944ZM15.2941 65.0004L22.3671 57.9312L22.3653 57.9295L15.2941 65.0004ZM15.2959 65.0023L22.3674 72.073L29.4359 65.0038L22.3689 57.9331L15.2959 65.0023ZM15.2968 114.707L8.22567 121.778L15.2968 114.707ZM107.632 107.635C97.8121 117.456 81.8914 117.456 72.0711 107.637L57.9298 121.78C75.5607 139.409 104.144 139.408 121.774 121.777L107.632 107.635ZM107.633 72.0727C117.452 81.8935 117.452 97.8152 107.632 107.635L121.774 121.777C139.404 104.147 139.405 75.5632 121.777 57.9318L107.633 72.0727ZM107.62 57.9454L107.619 57.9463L121.791 72.0582L121.792 72.0573L107.62 57.9454ZM107.635 22.3663C117.455 32.187 117.455 48.1097 107.635 57.9304L121.777 72.0723C139.408 54.4412 139.408 25.8556 121.777 8.22441L107.635 22.3663ZM72.0725 22.3663C81.8927 12.5458 97.8144 12.5458 107.635 22.3663L121.777 8.22441C104.146 -9.40691 75.5609 -9.40691 57.9301 8.22441L72.0725 22.3663ZM72.0753 22.3636L72.0761 22.3627L57.9265 8.22806L57.9256 8.22896L72.0753 22.3636ZM57.9275 22.3655L57.9294 22.3673L72.0715 8.2252L72.0697 8.22338L57.9275 22.3655ZM22.3653 22.3654C32.1856 12.5449 48.1072 12.5449 57.9274 22.3654L72.0698 8.22349C54.439 -9.40783 25.8537 -9.40783 8.22296 8.22349L22.3653 22.3654ZM22.3653 57.9295C12.5449 48.1088 12.5449 32.1861 22.3653 22.3654L8.22296 8.22349C-9.40765 25.8546 -9.40765 54.4403 8.22296 72.0714L22.3653 57.9295ZM22.3689 57.9331L22.3671 57.9312L8.22121 72.0697L8.22302 72.0715L22.3689 57.9331ZM22.368 107.636C12.5478 97.8159 12.5476 81.8937 22.3674 72.073L8.22452 57.9315C-9.40494 75.5628 -9.40456 104.148 8.22567 121.778L22.368 107.636ZM57.9295 107.637C48.1092 117.457 32.188 117.457 22.368 107.636L8.22567 121.778C25.8561 139.409 54.4405 139.41 72.0714 121.779L57.9295 107.637Z" fill="white" mask="url(#path-1-inside-1_318_12763)"/>
</g>
<rect x="36" y="44" width="6" height="10" rx="3" fill="black"/>
<rect x="61" y="44" width="6" height="10" rx="3" fill="black"/>
<rect x="67" y="58" width="6" height="31" rx="3" transform="rotate(90 67 58)" fill="black"/>
<defs>
<filter id="filter0_d_318_12763" x="0" y="0" width="130" height="130.002" filterUnits="userSpaceOnUse" color-interpolation-filters="sRGB">
<feFlood flood-opacity="0" result="BackgroundImageFix"/>
<feColorMatrix in="SourceAlpha" type="matrix" values="0 0 0 0 0 0 0 0 0 0 0 0 0 0 0 0 0 0 127 0" result="hardAlpha"/>
<feOffset/>
<feGaussianBlur stdDeviation="2.5"/>
<feComposite in2="hardAlpha" operator="out"/>
<feColorMatrix type="matrix" values="0 0 0 0 0 0 0 0 0 0 0 0 0 0 0 0 0 0 0.1 0"/>
<feBlend mode="normal" in2="BackgroundImageFix" result="effect1_dropShadow_318_12763"/>
<feBlend mode="normal" in="SourceGraphic" in2="effect1_dropShadow_318_12763" result="shape"/>
</filter>
</defs>
</svg>
