<svg width="61" height="60" viewBox="0 0 61 60" fill="none" xmlns="http://www.w3.org/2000/svg">
<g filter="url(#filter0_d_391_15665)">
<mask id="path-1-inside-1_391_15665" fill="white">
<path fill-rule="evenodd" clip-rule="evenodd" d="M25.5739 20.0002C22.1429 23.4317 22.143 28.9948 25.5743 32.4261C29.0056 35.8574 34.5687 35.8575 38.0002 32.4265C41.4316 35.8575 46.9948 35.8574 50.4261 32.4261C53.8574 28.9948 53.8575 23.4317 50.4264 20.0002L50.4268 19.9998C53.8582 16.5684 53.8582 11.005 50.4268 7.57356C46.9954 4.14215 41.432 4.14215 38.0006 7.57356L38.0002 7.57396L37.9998 7.57362C34.5684 4.1422 29.005 4.1422 25.5736 7.57362C22.1421 11.005 22.1421 16.5685 25.5736 19.9999L25.5739 20.0002Z"/>
</mask>
<path fill-rule="evenodd" clip-rule="evenodd" d="M25.5739 20.0002C22.1429 23.4317 22.143 28.9948 25.5743 32.4261C29.0056 35.8574 34.5687 35.8575 38.0002 32.4265C41.4316 35.8575 46.9948 35.8574 50.4261 32.4261C53.8574 28.9948 53.8575 23.4317 50.4264 20.0002L50.4268 19.9998C53.8582 16.5684 53.8582 11.005 50.4268 7.57356C46.9954 4.14215 41.432 4.14215 38.0006 7.57356L38.0002 7.57396L37.9998 7.57362C34.5684 4.1422 29.005 4.1422 25.5736 7.57362C22.1421 11.005 22.1421 16.5685 25.5736 19.9999L25.5739 20.0002Z" fill="#FF7C7C"/>
<path d="M25.5743 32.4261L22.7459 35.2545H22.7459L25.5743 32.4261ZM25.5739 20.0002L28.4025 22.8285L31.2306 20L28.4023 17.1718L25.5739 20.0002ZM38.0002 32.4265L40.8284 29.5979L38.0002 26.77L35.1719 29.5979L38.0002 32.4265ZM50.4264 20.0002L47.598 17.1718L44.7697 20.0001L47.5978 22.8285L50.4264 20.0002ZM50.4268 19.9998L53.2552 22.8282L50.4268 19.9998ZM50.4268 7.57356L53.2552 4.74514V4.74513L50.4268 7.57356ZM38.0006 7.57356L40.829 10.402L38.0006 7.57356ZM38.0002 7.57396L35.1727 10.4034L38.0012 13.2298L40.8286 10.4024L38.0002 7.57396ZM37.9998 7.57362L35.1714 10.402L35.1724 10.403L37.9998 7.57362ZM25.5736 7.57362L28.402 10.402V10.402L25.5736 7.57362ZM25.5736 19.9999L28.402 17.1715L25.5736 19.9999ZM28.4027 29.5976C26.5335 27.7284 26.5334 24.6978 28.4025 22.8285L22.7453 17.172C17.7524 22.1655 17.7526 30.2612 22.7459 35.2545L28.4027 29.5976ZM35.1719 29.5979C33.3026 31.467 30.272 31.4669 28.4027 29.5976L22.7459 35.2545C27.7392 40.2478 35.8348 40.248 40.8284 35.2551L35.1719 29.5979ZM47.5976 29.5977C45.7284 31.467 42.6978 31.467 40.8284 29.5979L35.1719 35.2551C40.1654 40.2481 48.2612 40.2479 53.2545 35.2546L47.5976 29.5977ZM47.5978 22.8285C49.467 24.6978 49.4669 27.7285 47.5976 29.5977L53.2545 35.2546C58.2479 30.2612 58.248 22.1655 53.255 17.1719L47.5978 22.8285ZM47.5984 17.1714L47.598 17.1718L53.2548 22.8286L53.2552 22.8282L47.5984 17.1714ZM47.5984 10.402C49.4677 12.2713 49.4677 15.3021 47.5984 17.1714L53.2552 22.8282C58.2488 17.8347 58.2488 9.73865 53.2552 4.74514L47.5984 10.402ZM40.829 10.402C42.6983 8.53267 45.7291 8.53267 47.5984 10.402L53.2552 4.74513C48.2617 -0.24838 40.1656 -0.248377 35.1721 4.74514L40.829 10.402ZM40.8286 10.4024L40.829 10.402L35.1721 4.74514L35.1717 4.74553L40.8286 10.4024ZM35.1724 10.403L35.1727 10.4034L40.8276 4.74454L40.8273 4.7442L35.1724 10.403ZM28.402 10.402C30.2713 8.53273 33.3021 8.53273 35.1714 10.402L40.8282 4.74519C35.8347 -0.248319 27.7386 -0.248322 22.7451 4.74519L28.402 10.402ZM28.402 17.1715C26.5327 15.3021 26.5327 12.2714 28.402 10.402L22.7451 4.74519C17.7516 9.73871 17.7516 17.8348 22.7451 22.8283L28.402 17.1715ZM28.4023 17.1718L28.402 17.1715L22.7451 22.8283L22.7455 22.8286L28.4023 17.1718Z" fill="white" mask="url(#path-1-inside-1_391_15665)"/>
</g>
<rect x="33" y="15" width="1.5" height="2.4" rx="0.75" fill="black"/>
<rect x="40" y="15" width="1.5" height="2.4" rx="0.75" fill="black"/>
<rect x="41.5" y="19" width="1.5" height="8.5" rx="0.75" transform="rotate(90 41.5 19)" fill="black"/>
<g filter="url(#filter1_d_391_15665)">
<path d="M19.4073 20.9149C20.1152 19.695 21.8848 19.695 22.5927 20.9149L31.7509 36.6971C32.4587 37.917 31.5739 39.4419 30.1581 39.4419H11.8419C10.4261 39.4419 9.54126 37.917 10.2491 36.6971L19.4073 20.9149Z" fill="#FCD342"/>
<path d="M8.51929 35.6933L10.2491 36.6971L8.51929 35.6933C7.02888 38.2618 8.90217 41.4419 11.8419 41.4419H30.1581C33.0978 41.4419 34.9711 38.2618 33.4807 35.6933L24.3226 19.9111C22.8439 17.363 19.1561 17.363 17.6774 19.9111L8.51929 35.6933Z" stroke="white" stroke-width="4"/>
</g>
<rect x="16" y="29" width="1.5" height="2.4" rx="0.75" fill="black"/>
<rect x="23" y="29" width="1.5" height="2.4" rx="0.75" fill="black"/>
<rect x="24.5" y="33" width="1.5" height="8.5" rx="0.75" transform="rotate(90 24.5 33)" fill="black"/>
<g filter="url(#filter2_d_391_15665)">
<rect x="26" y="25" width="30" height="30" rx="15" fill="#6EDB5B"/>
<rect x="28" y="27" width="26" height="26" rx="13" stroke="white" stroke-width="4"/>
</g>
<rect x="33" y="35" width="1.5" height="2.4" rx="0.75" fill="black"/>
<rect x="40" y="35" width="1.5" height="2.4" rx="0.75" fill="black"/>
<rect x="41.5" y="39" width="1.5" height="8.5" rx="0.75" transform="rotate(90 41.5 39)" fill="black"/>
<defs>
<filter id="filter0_d_391_15665" x="18" y="0" width="40.0005" height="39.9995" filterUnits="userSpaceOnUse" color-interpolation-filters="sRGB">
<feFlood flood-opacity="0" result="BackgroundImageFix"/>
<feColorMatrix in="SourceAlpha" type="matrix" values="0 0 0 0 0 0 0 0 0 0 0 0 0 0 0 0 0 0 127 0" result="hardAlpha"/>
<feOffset/>
<feGaussianBlur stdDeviation="2.5"/>
<feComposite in2="hardAlpha" operator="out"/>
<feColorMatrix type="matrix" values="0 0 0 0 0 0 0 0 0 0 0 0 0 0 0 0 0 0 0.1 0"/>
<feBlend mode="normal" in2="BackgroundImageFix" result="effect1_dropShadow_391_15665"/>
<feBlend mode="normal" in="SourceGraphic" in2="effect1_dropShadow_391_15665" result="shape"/>
</filter>
<filter id="filter1_d_391_15665" x="0.991211" y="11" width="40.0176" height="37.4419" filterUnits="userSpaceOnUse" color-interpolation-filters="sRGB">
<feFlood flood-opacity="0" result="BackgroundImageFix"/>
<feColorMatrix in="SourceAlpha" type="matrix" values="0 0 0 0 0 0 0 0 0 0 0 0 0 0 0 0 0 0 127 0" result="hardAlpha"/>
<feOffset/>
<feGaussianBlur stdDeviation="2.5"/>
<feComposite in2="hardAlpha" operator="out"/>
<feColorMatrix type="matrix" values="0 0 0 0 0 0 0 0 0 0 0 0 0 0 0 0 0 0 0.1 0"/>
<feBlend mode="normal" in2="BackgroundImageFix" result="effect1_dropShadow_391_15665"/>
<feBlend mode="normal" in="SourceGraphic" in2="effect1_dropShadow_391_15665" result="shape"/>
</filter>
<filter id="filter2_d_391_15665" x="21" y="20" width="40" height="40" filterUnits="userSpaceOnUse" color-interpolation-filters="sRGB">
<feFlood flood-opacity="0" result="BackgroundImageFix"/>
<feColorMatrix in="SourceAlpha" type="matrix" values="0 0 0 0 0 0 0 0 0 0 0 0 0 0 0 0 0 0 127 0" result="hardAlpha"/>
<feOffset/>
<feGaussianBlur stdDeviation="2.5"/>
<feComposite in2="hardAlpha" operator="out"/>
<feColorMatrix type="matrix" values="0 0 0 0 0 0 0 0 0 0 0 0 0 0 0 0 0 0 0.1 0"/>
<feBlend mode="normal" in2="BackgroundImageFix" result="effect1_dropShadow_391_15665"/>
<feBlend mode="normal" in="SourceGraphic" in2="effect1_dropShadow_391_15665" result="shape"/>
</filter>
</defs>
</svg>
