<?xml version="1.0" encoding="UTF-8"?><svg id="Layer_2" xmlns="http://www.w3.org/2000/svg" viewBox="0 0 120 120"><defs><style>.cls-1{fill:none;}.cls-2{fill:#fff;}.cls-3{fill:#fcd342;}.cls-4{fill:#ff7c7c;}.cls-5{fill:#6edb5b;}</style></defs><g id="Layer_1-2"><g><g><g><path class="cls-4" d="M87.15,69.69c-4.57,0-8.9-1.75-12.19-4.93l-3-2.9-3,2.9c-3.29,3.18-7.62,4.93-12.19,4.93s-9.07-1.82-12.38-5.13c-6.72-6.72-6.8-17.74-.2-24.56l2.9-3-2.9-3c-6.61-6.83-6.52-17.85,.2-24.57,3.31-3.31,7.7-5.13,12.38-5.13s8.9,1.75,12.19,4.93l3,2.9,3-2.9c3.29-3.18,7.62-4.93,12.19-4.93s9.07,1.82,12.37,5.13c6.72,6.71,6.8,17.73,.2,24.57l-2.9,3,2.9,3c6.61,6.83,6.52,17.85-.2,24.56-3.31,3.31-7.7,5.13-12.38,5.13h0Z"/><path class="cls-2" d="M87.14,0V8.62c3.52,0,6.84,1.37,9.33,3.86,5.06,5.06,5.13,13.37,.15,18.52l-5.8,5.99,5.8,5.99c4.98,5.15,4.92,13.46-.15,18.52-2.49,2.49-5.8,3.86-9.33,3.86s-6.71-1.32-9.19-3.72l-5.99-5.8-5.99,5.8c-2.48,2.4-5.74,3.72-9.19,3.72s-6.84-1.37-9.33-3.86c-5.06-5.06-5.13-13.37-.15-18.52l5.8-5.99-5.8-5.99c-4.98-5.15-4.92-13.46,.15-18.52,2.49-2.49,5.8-3.86,9.33-3.86,3.45,0,6.71,1.32,9.19,3.72l5.99,5.8,5.99-5.8c2.48-2.4,5.74-3.72,9.19-3.72V0M87.15,0c-5.48,0-10.95,2.05-15.19,6.14C67.73,2.05,62.25,0,56.77,0c-5.58,0-11.16,2.13-15.42,6.39-8.44,8.44-8.51,22.06-.25,30.61-8.27,8.55-8.2,22.17,.25,30.61h0c4.26,4.26,9.84,6.39,15.42,6.39s10.95-2.05,15.19-6.14c4.23,4.09,9.71,6.14,15.19,6.14s11.16-2.13,15.42-6.39h0c8.44-8.44,8.51-22.06,.25-30.61,8.27-8.55,8.2-22.17-.25-30.61h0C98.31,2.13,92.73,0,87.15,0h0Z"/></g><path d="M59.71,25.47h0c.85,0,1.54,.69,1.54,1.54v1.85c0,.85-.69,1.54-1.54,1.54h0c-.85,0-1.54-.69-1.54-1.54v-1.85c0-.85,.69-1.54,1.54-1.54Z"/><path d="M74.49,25.47h0c.85,0,1.54,.69,1.54,1.54v1.85c0,.85-.69,1.54-1.54,1.54h0c-.85,0-1.54-.69-1.54-1.54v-1.85c0-.85,.69-1.54,1.54-1.54Z"/><path d="M76.03,34.4h0c0,.85-.69,1.54-1.54,1.54h-14.78c-.85,0-1.54-.69-1.54-1.54h0c0-.85,.69-1.54,1.54-1.54h14.78c.85,0,1.54,.69,1.54,1.54Z"/></g><g><rect class="cls-1" y="27.38" width="74" height="74"/><g><g><path class="cls-3" d="M68.44,80.31l-23.61-40.96c-3.49-6.05-12.19-6.05-15.68,0L5.56,80.31c-3.51,6.1,.9,13.65,7.84,13.65H60.61c6.94,0,11.35-7.55,7.84-13.65Z"/><path class="cls-2" d="M60.61,98.3H13.39c-4.84,0-9.18-2.52-11.6-6.75-2.4-4.2-2.39-9.22,.03-13.42L25.43,37.17c2.42-4.2,6.74-6.7,11.57-6.7s9.15,2.51,11.57,6.7l23.61,40.96c2.42,4.2,2.43,9.22,.03,13.42-2.42,4.23-6.75,6.75-11.6,6.75Zm-23.61-59.14c-.82,0-2.87,.23-4.11,2.37L9.29,82.49c-1.23,2.13-.42,4.02-.01,4.72,.86,1.5,2.4,2.4,4.12,2.4H60.61c1.72,0,3.26-.9,4.12-2.4,.41-.71,1.22-2.59-.01-4.72l-23.61-40.96c-1.24-2.14-3.28-2.37-4.11-2.37Z"/></g><path d="M27.45,59.02h0c.85,0,1.54,.69,1.54,1.55v1.86c0,.86-.69,1.55-1.54,1.55h0c-.85,0-1.54-.69-1.54-1.55v-1.86c0-.86,.69-1.55,1.54-1.55Z"/><path d="M42.24,59.02h0c.85,0,1.54,.69,1.54,1.55v1.86c0,.86-.69,1.55-1.54,1.55h0c-.85,0-1.54-.69-1.54-1.55v-1.86c0-.86,.69-1.55,1.54-1.55Z"/><path d="M43.78,68.01h0c0,.86-.69,1.55-1.54,1.55h-14.79c-.85,0-1.54-.69-1.54-1.55h0c0-.86,.69-1.55,1.54-1.55h14.79c.85,0,1.54,.69,1.54,1.55Z"/></g></g><g><g><path class="cls-5" d="M83,50.32h0c18.05,0,32.68,14.63,32.68,32.68h0c0,18.05-14.63,32.68-32.68,32.68h0c-18.05,0-32.68-14.63-32.68-32.68h0c0-18.05,14.63-32.68,32.68-32.68Z"/><path class="cls-2" d="M83,120c-20.4,0-37-16.6-37-37s16.6-37,37-37,37,16.6,37,37-16.6,37-37,37Zm0-65.37c-15.64,0-28.37,12.73-28.37,28.37s12.73,28.37,28.37,28.37,28.37-12.73,28.37-28.37-12.73-28.37-28.37-28.37Z"/></g><path d="M67.27,71.9h0c.85,0,1.54,.69,1.54,1.54v1.85c0,.85-.69,1.54-1.54,1.54h0c-.85,0-1.54-.69-1.54-1.54v-1.85c0-.85,.69-1.54,1.54-1.54Z"/><path d="M82.07,71.9h0c.85,0,1.54,.69,1.54,1.54v1.85c0,.85-.69,1.54-1.54,1.54h0c-.85,0-1.54-.69-1.54-1.54v-1.85c0-.85,.69-1.54,1.54-1.54Z"/><path d="M83.62,80.84h0c0,.85-.69,1.54-1.54,1.54h-14.8c-.85,0-1.54-.69-1.54-1.54h0c0-.85,.69-1.54,1.54-1.54h14.8c.85,0,1.54,.69,1.54,1.54Z"/></g></g></g></svg>