<svg width="35" height="34" viewBox="0 0 35 34" fill="none" xmlns="http://www.w3.org/2000/svg">
<g filter="url(#filter0_d_318_13303)">
<path d="M16.1245 8.84706C16.7358 7.71765 18.2642 7.71765 18.8755 8.84706L26.7848 23.4588C27.3962 24.5882 26.632 26 25.4093 26H9.5907C8.368 26 7.60382 24.5882 8.21517 23.4588L16.1245 8.84706Z" fill="#FCD342"/>
<path d="M20.1947 8.13301C19.0161 5.95567 15.9839 5.95566 14.8053 8.13301L6.89602 22.7448C5.82122 24.7304 7.0726 27.5 9.5907 27.5H25.4093C27.9274 27.5 29.1788 24.7304 28.104 22.7448L20.1947 8.13301Z" stroke="white" stroke-width="3"/>
</g>
<rect x="13" y="16" width="1.5" height="2.4" rx="0.75" fill="black"/>
<rect x="20" y="16" width="1.5" height="2.4" rx="0.75" fill="black"/>
<rect x="21.5" y="20" width="1.5" height="8.5" rx="0.75" transform="rotate(90 21.5 20)" fill="black"/>
<defs>
<filter id="filter0_d_318_13303" x="0.0195312" y="0" width="34.9609" height="34" filterUnits="userSpaceOnUse" color-interpolation-filters="sRGB">
<feFlood flood-opacity="0" result="BackgroundImageFix"/>
<feColorMatrix in="SourceAlpha" type="matrix" values="0 0 0 0 0 0 0 0 0 0 0 0 0 0 0 0 0 0 127 0" result="hardAlpha"/>
<feOffset/>
<feGaussianBlur stdDeviation="2.5"/>
<feComposite in2="hardAlpha" operator="out"/>
<feColorMatrix type="matrix" values="0 0 0 0 0 0 0 0 0 0 0 0 0 0 0 0 0 0 0.1 0"/>
<feBlend mode="normal" in2="BackgroundImageFix" result="effect1_dropShadow_318_13303"/>
<feBlend mode="normal" in="SourceGraphic" in2="effect1_dropShadow_318_13303" result="shape"/>
</filter>
</defs>
</svg>
