<svg width="60" height="60" viewBox="0 0 60 60" fill="none" xmlns="http://www.w3.org/2000/svg">
<rect width="60" height="60" rx="16" fill="url(#paint0_linear_747_17527)"/>
<path d="M15.6553 45.8184H44.7964C48.2471 45.8184 50.2524 43.813 50.2524 39.9648V20.0015C50.2524 16.1533 48.229 14.1299 44.3267 14.1299H15.2036C11.7529 14.1299 9.72949 16.1353 9.72949 20.0015V39.9648C9.72949 43.8311 11.7529 45.8184 15.6553 45.8184ZM27.9404 30.6245L14.752 17.5806C15.0229 17.5264 15.3301 17.4902 15.6553 17.4902H44.3267C44.688 17.4902 44.9951 17.5264 45.2842 17.5986L32.0957 30.6245C31.3369 31.3833 30.6865 31.6904 30.0181 31.6904C29.3496 31.6904 28.6992 31.3652 27.9404 30.6245ZM13.0537 20.2183L22.918 29.9199L13.0537 39.6938V20.2183ZM37.1182 29.9199L46.9463 20.2725V39.6577L37.1182 29.9199ZM15.6553 42.4761C15.312 42.4761 15.0049 42.4399 14.7158 42.3677L25.104 32.0698L26.0977 33.0635C27.3984 34.3462 28.6812 34.8882 30.0181 34.8882C31.355 34.8882 32.6377 34.3462 33.9385 33.0635L34.9321 32.0698L45.3022 42.3496C45.0132 42.4399 44.688 42.4761 44.3267 42.4761H15.6553Z" fill="white"/>
<defs>
<linearGradient id="paint0_linear_747_17527" x1="19.5" y1="-1.75834e-07" x2="41.5" y2="60" gradientUnits="userSpaceOnUse">
<stop stop-color="#1F67F4"/>
<stop offset="1" stop-color="#8DE4FF"/>
</linearGradient>
</defs>
</svg>
