<svg width="132" height="120" viewBox="0 0 132 120" fill="none" xmlns="http://www.w3.org/2000/svg">
<g filter="url(#filter0_d_318_12761)">
<path d="M58.7604 20.1355C61.978 14.6215 70.022 14.6215 73.2396 20.1355L114.868 91.4724C118.085 96.9863 114.063 103.879 107.628 103.879H24.3721C17.9368 103.879 13.9148 96.9863 17.1324 91.4724L58.7604 20.1355Z" fill="#FCD342"/>
<path d="M77.5581 17.6155C72.411 8.79486 59.589 8.79484 54.4419 17.6154L12.8139 88.9524C7.60446 97.8797 14.1707 108.879 24.3721 108.879H107.628C117.829 108.879 124.396 97.8797 119.186 88.9524L77.5581 17.6155Z" stroke="white" stroke-width="10"/>
</g>
<rect x="46" y="47" width="6" height="10" rx="3" fill="black"/>
<rect x="71" y="47" width="6" height="10" rx="3" fill="black"/>
<rect x="77" y="61" width="6" height="31" rx="3" transform="rotate(90 77 61)" fill="black"/>
<defs>
<filter id="filter0_d_318_12761" x="0.970703" y="1" width="130.059" height="117.879" filterUnits="userSpaceOnUse" color-interpolation-filters="sRGB">
<feFlood flood-opacity="0" result="BackgroundImageFix"/>
<feColorMatrix in="SourceAlpha" type="matrix" values="0 0 0 0 0 0 0 0 0 0 0 0 0 0 0 0 0 0 127 0" result="hardAlpha"/>
<feOffset/>
<feGaussianBlur stdDeviation="2.5"/>
<feComposite in2="hardAlpha" operator="out"/>
<feColorMatrix type="matrix" values="0 0 0 0 0 0 0 0 0 0 0 0 0 0 0 0 0 0 0.1 0"/>
<feBlend mode="normal" in2="BackgroundImageFix" result="effect1_dropShadow_318_12761"/>
<feBlend mode="normal" in="SourceGraphic" in2="effect1_dropShadow_318_12761" result="shape"/>
</filter>
</defs>
</svg>
