<svg width="60" height="60" viewBox="0 0 60 60" fill="none" xmlns="http://www.w3.org/2000/svg">
<rect x="2.5" y="2.5" width="55" height="55" rx="7.5" fill="#F6F6F6" stroke="white" stroke-width="5"/>
<path fill-rule="evenodd" clip-rule="evenodd" d="M39.7501 38.6553C42.2093 41.1144 46.1964 41.1144 48.6555 38.6553C51.1147 36.1961 51.1147 32.209 48.6555 29.7498L48.6555 29.7498C51.1144 27.2906 51.1144 23.3036 48.6553 20.8445C46.1962 18.3854 42.2092 18.3853 39.75 20.8443C37.2908 18.3852 33.3038 18.3852 30.8446 20.8444C28.3855 23.3035 28.3855 27.2906 30.8446 29.7498L30.8444 29.7499C28.3852 32.2091 28.3852 36.1962 30.8444 38.6554C33.3035 41.1146 37.2906 41.1146 39.7498 38.6554L39.75 38.6552L39.7501 38.6553Z" fill="#FF7C7C"/>
<path d="M48.6555 38.6553L47.5949 37.5946L47.5949 37.5946L48.6555 38.6553ZM39.7501 38.6553L40.8107 37.5946L40.8107 37.5946L39.7501 38.6553ZM48.6555 29.7498L49.7162 28.6892L49.7162 28.6892L48.6555 29.7498ZM48.6555 29.7498L47.5948 28.6891L46.5342 29.7498L47.5948 30.8104L48.6555 29.7498ZM48.6553 20.8445L47.5946 21.9052L47.5946 21.9052L48.6553 20.8445ZM39.75 20.8443L38.6894 21.905L39.75 22.9656L40.8106 21.905L39.75 20.8443ZM30.8446 20.8444L31.9053 21.905L30.8446 20.8444ZM30.8446 29.7498L31.9046 30.8111L32.9665 29.7504L31.9052 28.6891L30.8446 29.7498ZM30.8444 29.7499L29.7844 28.6886L29.7837 28.6893L30.8444 29.7499ZM30.8444 38.6554L29.7837 39.716L29.7837 39.716L30.8444 38.6554ZM39.7498 38.6554L40.8105 39.7161L40.8131 39.7135L39.7498 38.6554ZM39.75 38.6552L40.8107 37.5945L39.7474 36.5313L38.6868 37.5971L39.75 38.6552ZM47.5949 37.5946C45.7215 39.468 42.6841 39.468 40.8107 37.5946L38.6894 39.7159C41.7344 42.7609 46.6712 42.7609 49.7162 39.7159L47.5949 37.5946ZM47.5949 30.8105C49.4683 32.6839 49.4683 35.7212 47.5949 37.5946L49.7162 39.7159C52.7611 36.671 52.7611 31.7341 49.7162 28.6892L47.5949 30.8105ZM47.5948 30.8104L47.5949 30.8105L49.7162 28.6892L49.7161 28.6891L47.5948 30.8104ZM47.5946 21.9052C49.4679 23.7785 49.468 26.8157 47.5948 28.6891L49.7162 30.8104C52.7609 27.7654 52.7608 22.8287 49.7159 19.7838L47.5946 21.9052ZM40.8106 21.905C42.684 20.0318 45.7213 20.0318 47.5946 21.9052L49.7159 19.7838C46.671 16.739 41.7344 16.7389 38.6894 19.7836L40.8106 21.905ZM31.9053 21.905C33.7787 20.0317 36.816 20.0317 38.6894 21.905L40.8107 19.7836C37.7657 16.7388 32.8289 16.7388 29.784 19.7837L31.9053 21.905ZM31.9052 28.6891C30.0319 26.8157 30.0319 23.7784 31.9053 21.905L29.784 19.7837C26.7391 22.8286 26.739 27.7654 29.7839 30.8104L31.9052 28.6891ZM31.9044 30.8113L31.9046 30.8111L29.7846 28.6884L29.7844 28.6886L31.9044 30.8113ZM31.905 37.5947C30.0317 35.7213 30.0317 32.684 31.905 30.8106L29.7837 28.6893C26.7388 31.7342 26.7388 36.6711 29.7837 39.716L31.905 37.5947ZM38.6892 37.5947C36.8158 39.4681 33.7784 39.4681 31.905 37.5947L29.7837 39.716C32.8287 42.761 37.7655 42.761 40.8105 39.7161L38.6892 37.5947ZM38.6868 37.5971L38.6866 37.5973L40.8131 39.7135L40.8133 39.7133L38.6868 37.5971ZM40.8107 37.5946L40.8107 37.5945L38.6894 39.7159L38.6894 39.7159L40.8107 37.5946Z" fill="white"/>
<rect x="35.0195" y="25.8799" width="1.28998" height="2.06397" rx="0.644991" fill="black"/>
<rect x="41.0391" y="25.8799" width="1.28998" height="2.06397" rx="0.644991" fill="black"/>
<rect x="42.3301" y="29.3198" width="1.28998" height="7.3099" rx="0.644991" transform="rotate(90 42.3301 29.3198)" fill="black"/>
<rect x="9" y="19" width="21.5" height="21.5" rx="10.75" fill="#6EDB5B" stroke="white" stroke-width="3"/>
<rect x="14.1602" y="25.8799" width="1.29" height="2.064" rx="0.645" fill="black"/>
<rect x="20.1797" y="25.8799" width="1.29" height="2.064" rx="0.645" fill="black"/>
<rect x="21.4707" y="29.3198" width="1.29" height="7.31" rx="0.645" transform="rotate(90 21.4707 29.3198)" fill="black"/>
<path d="M40.104 34.7448L32.1947 20.133C31.0161 17.9557 27.9839 17.9557 26.8053 20.133L18.896 34.7448C17.8212 36.7304 19.0726 39.5 21.5907 39.5H37.4093C39.9274 39.5 41.1788 36.7304 40.104 34.7448Z" fill="#FCD342" stroke="white" stroke-width="3"/>
<rect x="25" y="28" width="1.5" height="2.4" rx="0.75" fill="black"/>
<rect x="32" y="28" width="1.5" height="2.4" rx="0.75" fill="black"/>
<rect x="33.5" y="32" width="1.5" height="8.5" rx="0.75" transform="rotate(90 33.5 32)" fill="black"/>
</svg>
