<svg width="300" height="300" viewBox="0 0 300 300" fill="none" xmlns="http://www.w3.org/2000/svg">
<rect width="300" height="300" fill="#F2F2F2"/>
<g filter="url(#filter0_d_949_17033)">
<path fill-rule="evenodd" clip-rule="evenodd" d="M153.056 100C125.441 100 103.056 122.386 103.056 150C103.056 177.614 125.441 200 153.056 200C180.67 200 203.056 177.614 203.056 150C203.056 122.386 180.67 100 153.056 100Z" fill="white"/>
<path d="M201.288 130.718C201.676 130.766 202.039 130.91 202.379 131.103L207.586 134.066C209.476 135.141 210.161 137.527 209.129 139.44L203.846 149.242L197.906 161.985C197.886 162.027 197.861 162.066 197.831 162.1V162.1C197.677 162.275 197.422 162.318 197.22 162.203L180.81 152.817C178.061 151.245 178.084 147.14 180.697 145.35C184.432 142.791 188.955 139.153 191.634 135.079C194.728 130.373 199.621 130.514 201.288 130.718Z" fill="white"/>
<path d="M88.8533 141.749C87.9242 139.327 89.5113 136.674 92.085 136.348L94.3087 136.066C95.1668 135.958 95.9665 135.574 96.588 134.972L96.7932 134.773C97.4479 134.139 98.2994 133.748 99.2068 133.664L100.377 133.556C101.17 133.482 101.924 133.173 102.541 132.669L104.486 131.077C104.702 130.901 104.935 130.747 105.182 130.62L106.749 129.81C108.694 128.805 111.086 129.55 112.116 131.483L122.425 150.832C123.556 152.954 122.572 155.587 120.327 156.448L101.539 163.654C99.4768 164.445 97.1634 163.415 96.3723 161.352L88.8533 141.749Z" fill="white"/>
<rect x="110.747" y="107.692" width="84.6168" height="84.6168" rx="42.3084" fill="#F5F5F5"/>
<rect x="126.067" y="133.093" width="3.40831" height="5.45329" rx="1.70415" fill="black"/>
<rect x="152.196" y="133.093" width="3.40831" height="5.45329" rx="1.70415" fill="black"/>
<rect x="138.563" y="140.368" width="5.68052" height="6.36218" rx="2.84026" fill="black"/>
<path d="M192.341 154.911L179.242 177.6M192.341 154.911L186.932 151.788L192.058 142.909C196.615 135.018 202.024 138.141 202.024 138.141L192.341 154.911Z" stroke="#AAC0D2" stroke-width="3" stroke-linecap="round" stroke-linejoin="round"/>
<path d="M191.541 142.609C196.098 134.717 202.026 138.139 202.026 138.139L192.344 154.91L186.415 151.487L191.541 142.609Z" fill="#AAC0D2"/>
<path d="M101.491 141.011L116.869 178.2M95.0852 143.004L99.1013 152.68C101.109 157.518 107.231 154.977 107.231 154.977C107.231 154.977 113.352 152.437 111.344 147.599L107.328 137.923" stroke="#AAC0D2" stroke-width="3" stroke-linecap="round" stroke-linejoin="round"/>
</g>
<defs>
<filter id="filter0_d_949_17033" x="82" y="95" width="135.433" height="110" filterUnits="userSpaceOnUse" color-interpolation-filters="sRGB">
<feFlood flood-opacity="0" result="BackgroundImageFix"/>
<feColorMatrix in="SourceAlpha" type="matrix" values="0 0 0 0 0 0 0 0 0 0 0 0 0 0 0 0 0 0 127 0" result="hardAlpha"/>
<feOffset/>
<feGaussianBlur stdDeviation="2.5"/>
<feComposite in2="hardAlpha" operator="out"/>
<feColorMatrix type="matrix" values="0 0 0 0 0 0 0 0 0 0 0 0 0 0 0 0 0 0 0.1 0"/>
<feBlend mode="normal" in2="BackgroundImageFix" result="effect1_dropShadow_949_17033"/>
<feBlend mode="normal" in="SourceGraphic" in2="effect1_dropShadow_949_17033" result="shape"/>
</filter>
</defs>
</svg>
