<svg width="300" height="300" viewBox="0 0 300 300" fill="none" xmlns="http://www.w3.org/2000/svg">
<path d="M0 16C0 7.16345 7.16344 0 16 0H284C292.837 0 300 7.16344 300 16V300H0V16Z" fill="#F2F2F2"/>
<g filter="url(#filter0_d_949_17033)">
<path fill-rule="evenodd" clip-rule="evenodd" d="M100 147.22C100 121.141 121.141 100 147.22 100C173.298 100 194.439 121.141 194.439 147.22V149.724C194.439 152.196 194.249 154.623 193.883 156.992C197.172 158.229 201.155 162.562 199.878 165.262C188.53 189.816 177.684 195.686 169.551 199.478C166.67 200.821 160.927 199.339 160.154 196.345L159.893 195.223C155.86 196.344 151.61 196.943 147.22 196.943C121.141 196.943 100 175.802 100 149.724V147.22Z" fill="white"/>
<rect x="107.558" y="108.572" width="78.8519" height="80.9429" rx="39.4259" fill="#F5F5F5"/>
<rect x="121.833" y="132.87" width="3.1761" height="5.21652" rx="1.58805" fill="black"/>
<rect x="146.182" y="132.87" width="3.1761" height="5.21652" rx="1.58805" fill="black"/>
<rect x="133.479" y="139.829" width="5.2935" height="6.08594" rx="2.64675" fill="black"/>
<path d="M161.15 155.592L184.991 161.949L188.761 167.068L167.773 189.398L162.798 186.493L156.137 160.713C155.34 157.629 158.125 154.785 161.15 155.592Z" fill="#FFE47D"/>
<path d="M162.731 186.168C173.885 181.906 180.582 172.649 184.477 161.88L189.349 163.135C191.542 163.72 193.45 166.081 192.606 168.243C184.007 187.531 174.916 190.029 168.802 192.925C166.714 193.914 164.549 193.718 163.966 191.462L162.731 186.168Z" fill="#F3AD61"/>
<path d="M168.62 174.535C168.622 176.446 167.113 177.997 165.252 177.998C163.39 177.999 161.88 176.451 161.879 174.54C161.877 172.629 163.385 171.079 165.247 171.078C167.109 171.076 168.619 172.624 168.62 174.535Z" fill="#C64141"/>
<path d="M168.62 174.535C168.622 176.446 167.113 177.997 165.252 177.998C163.39 177.999 161.88 176.451 161.879 174.54C161.877 172.629 163.385 171.079 165.247 171.078C167.109 171.076 168.619 172.624 168.62 174.535Z" fill="#C64141"/>
<path d="M168.62 174.535C168.622 176.446 167.113 177.997 165.252 177.998C163.39 177.999 161.88 176.451 161.879 174.54C161.877 172.629 163.385 171.079 165.247 171.078C167.109 171.076 168.619 172.624 168.62 174.535Z" fill="#C64141"/>
<path d="M168.62 174.535C168.622 176.446 167.113 177.997 165.252 177.998C163.39 177.999 161.88 176.451 161.879 174.54C161.877 172.629 163.385 171.079 165.247 171.078C167.109 171.076 168.619 172.624 168.62 174.535Z" fill="#C64141"/>
<path d="M166.417 162.045C166.418 164.243 164.684 166.025 162.543 166.027C160.402 166.028 158.665 164.248 158.664 162.05C158.662 159.853 160.397 158.07 162.538 158.069C164.678 158.067 166.415 159.847 166.417 162.045Z" fill="#C64141"/>
<path d="M166.417 162.045C166.418 164.243 164.684 166.025 162.543 166.027C160.402 166.028 158.665 164.248 158.664 162.05C158.662 159.853 160.397 158.07 162.538 158.069C164.678 158.067 166.415 159.847 166.417 162.045Z" fill="#C64141"/>
<path d="M166.417 162.045C166.418 164.243 164.684 166.025 162.543 166.027C160.402 166.028 158.665 164.248 158.664 162.05C158.662 159.853 160.397 158.07 162.538 158.069C164.678 158.067 166.415 159.847 166.417 162.045Z" fill="#C64141"/>
<path d="M166.417 162.045C166.418 164.243 164.684 166.025 162.543 166.027C160.402 166.028 158.665 164.248 158.664 162.05C158.662 159.853 160.397 158.07 162.538 158.069C164.678 158.067 166.415 159.847 166.417 162.045Z" fill="#C64141"/>
<path d="M179.795 166.95C179.796 169.665 177.654 171.867 175.01 171.869C172.365 171.871 170.22 169.672 170.218 166.957C170.216 164.243 172.359 162.04 175.003 162.039C177.648 162.037 179.793 164.236 179.795 166.95Z" fill="#C64141"/>
<path d="M179.795 166.95C179.796 169.665 177.654 171.867 175.01 171.869C172.365 171.871 170.22 169.672 170.218 166.957C170.216 164.243 172.359 162.04 175.003 162.039C177.648 162.037 179.793 164.236 179.795 166.95Z" fill="#C64141"/>
<path d="M179.795 166.95C179.796 169.665 177.654 171.867 175.01 171.869C172.365 171.871 170.22 169.672 170.218 166.957C170.216 164.243 172.359 162.04 175.003 162.039C177.648 162.037 179.793 164.236 179.795 166.95Z" fill="#C64141"/>
<path d="M179.795 166.95C179.796 169.665 177.654 171.867 175.01 171.869C172.365 171.871 170.22 169.672 170.218 166.957C170.216 164.243 172.359 162.04 175.003 162.039C177.648 162.037 179.793 164.236 179.795 166.95Z" fill="#C64141"/>
</g>
<defs>
<filter id="filter0_d_949_17033" x="95" y="95" width="110.123" height="110" filterUnits="userSpaceOnUse" color-interpolation-filters="sRGB">
<feFlood flood-opacity="0" result="BackgroundImageFix"/>
<feColorMatrix in="SourceAlpha" type="matrix" values="0 0 0 0 0 0 0 0 0 0 0 0 0 0 0 0 0 0 127 0" result="hardAlpha"/>
<feOffset/>
<feGaussianBlur stdDeviation="2.5"/>
<feComposite in2="hardAlpha" operator="out"/>
<feColorMatrix type="matrix" values="0 0 0 0 0 0 0 0 0 0 0 0 0 0 0 0 0 0 0.1 0"/>
<feBlend mode="normal" in2="BackgroundImageFix" result="effect1_dropShadow_949_17033"/>
<feBlend mode="normal" in="SourceGraphic" in2="effect1_dropShadow_949_17033" result="shape"/>
</filter>
</defs>
</svg>
