<svg width="40" height="40" viewBox="0 0 40 40" fill="none" xmlns="http://www.w3.org/2000/svg">
<g filter="url(#filter0_d_318_13228)">
<mask id="path-1-inside-1_318_13228" fill="white">
<path fill-rule="evenodd" clip-rule="evenodd" d="M7.5739 20.0002C4.14288 23.4317 4.14302 28.9948 7.5743 32.4261C11.0056 35.8574 16.5687 35.8575 20.0002 32.4265C23.4316 35.8575 28.9948 35.8574 32.4261 32.4261C35.8574 28.9948 35.8575 23.4317 32.4264 20.0002L32.4268 19.9998C35.8582 16.5684 35.8582 11.005 32.4268 7.57356C28.9954 4.14215 23.432 4.14215 20.0006 7.57356L20.0002 7.57396L19.9998 7.57362C16.5684 4.1422 11.005 4.1422 7.57356 7.57362C4.14215 11.005 4.14215 16.5685 7.57356 19.9999L7.5739 20.0002Z"/>
</mask>
<path fill-rule="evenodd" clip-rule="evenodd" d="M7.5739 20.0002C4.14288 23.4317 4.14302 28.9948 7.5743 32.4261C11.0056 35.8574 16.5687 35.8575 20.0002 32.4265C23.4316 35.8575 28.9948 35.8574 32.4261 32.4261C35.8574 28.9948 35.8575 23.4317 32.4264 20.0002L32.4268 19.9998C35.8582 16.5684 35.8582 11.005 32.4268 7.57356C28.9954 4.14215 23.432 4.14215 20.0006 7.57356L20.0002 7.57396L19.9998 7.57362C16.5684 4.1422 11.005 4.1422 7.57356 7.57362C4.14215 11.005 4.14215 16.5685 7.57356 19.9999L7.5739 20.0002Z" fill="#FF7C7C"/>
<path d="M7.5743 32.4261L4.74587 35.2545H4.74587L7.5743 32.4261ZM7.5739 20.0002L10.4025 22.8285L13.2306 20L10.4023 17.1718L7.5739 20.0002ZM20.0002 32.4265L22.8284 29.5979L20.0002 26.77L17.1719 29.5979L20.0002 32.4265ZM32.4264 20.0002L29.598 17.1718L26.7697 20.0001L29.5978 22.8285L32.4264 20.0002ZM32.4268 19.9998L35.2552 22.8282L32.4268 19.9998ZM32.4268 7.57356L35.2552 4.74514V4.74513L32.4268 7.57356ZM20.0006 7.57356L22.829 10.402L20.0006 7.57356ZM20.0002 7.57396L17.1727 10.4034L20.0012 13.2298L22.8286 10.4024L20.0002 7.57396ZM19.9998 7.57362L17.1714 10.402L17.1724 10.403L19.9998 7.57362ZM7.57356 7.57362L10.402 10.402V10.402L7.57356 7.57362ZM7.57356 19.9999L10.402 17.1715L7.57356 19.9999ZM10.4027 29.5976C8.53348 27.7284 8.53341 24.6978 10.4025 22.8285L4.7453 17.172C-0.24764 22.1655 -0.247449 30.2612 4.74587 35.2545L10.4027 29.5976ZM17.1719 29.5979C15.3026 31.467 12.272 31.4669 10.4027 29.5976L4.74587 35.2545C9.73919 40.2478 17.8348 40.248 22.8284 35.2551L17.1719 29.5979ZM29.5976 29.5977C27.7284 31.467 24.6978 31.467 22.8284 29.5979L17.1719 35.2551C22.1654 40.2481 30.2612 40.2479 35.2545 35.2546L29.5976 29.5977ZM29.5978 22.8285C31.467 24.6978 31.4669 27.7285 29.5976 29.5977L35.2545 35.2546C40.2479 30.2612 40.248 22.1655 35.255 17.1719L29.5978 22.8285ZM29.5984 17.1714L29.598 17.1718L35.2548 22.8286L35.2552 22.8282L29.5984 17.1714ZM29.5984 10.402C31.4677 12.2713 31.4677 15.3021 29.5984 17.1714L35.2552 22.8282C40.2488 17.8347 40.2488 9.73865 35.2552 4.74514L29.5984 10.402ZM22.829 10.402C24.6983 8.53267 27.7291 8.53267 29.5984 10.402L35.2552 4.74513C30.2617 -0.24838 22.1656 -0.248377 17.1721 4.74514L22.829 10.402ZM22.8286 10.4024L22.829 10.402L17.1721 4.74514L17.1717 4.74553L22.8286 10.4024ZM17.1724 10.403L17.1727 10.4034L22.8276 4.74454L22.8273 4.7442L17.1724 10.403ZM10.402 10.402C12.2713 8.53273 15.3021 8.53273 17.1714 10.402L22.8282 4.74519C17.8347 -0.248319 9.73865 -0.248322 4.74513 4.74519L10.402 10.402ZM10.402 17.1715C8.53267 15.3021 8.53267 12.2714 10.402 10.402L4.74513 4.74519C-0.24838 9.73871 -0.248377 17.8348 4.74514 22.8283L10.402 17.1715ZM10.4023 17.1718L10.402 17.1715L4.74514 22.8283L4.74547 22.8286L10.4023 17.1718Z" fill="white" mask="url(#path-1-inside-1_318_13228)"/>
</g>
<rect x="15" y="15" width="1.5" height="2.4" rx="0.75" fill="black"/>
<rect x="22" y="15" width="1.5" height="2.4" rx="0.75" fill="black"/>
<rect x="23.5" y="19" width="1.5" height="8.5" rx="0.75" transform="rotate(90 23.5 19)" fill="black"/>
<defs>
<filter id="filter0_d_318_13228" x="0" y="0" width="40" height="39.9995" filterUnits="userSpaceOnUse" color-interpolation-filters="sRGB">
<feFlood flood-opacity="0" result="BackgroundImageFix"/>
<feColorMatrix in="SourceAlpha" type="matrix" values="0 0 0 0 0 0 0 0 0 0 0 0 0 0 0 0 0 0 127 0" result="hardAlpha"/>
<feOffset/>
<feGaussianBlur stdDeviation="2.5"/>
<feComposite in2="hardAlpha" operator="out"/>
<feColorMatrix type="matrix" values="0 0 0 0 0 0 0 0 0 0 0 0 0 0 0 0 0 0 0.1 0"/>
<feBlend mode="normal" in2="BackgroundImageFix" result="effect1_dropShadow_318_13228"/>
<feBlend mode="normal" in="SourceGraphic" in2="effect1_dropShadow_318_13228" result="shape"/>
</filter>
</defs>
</svg>
