<svg width="35" height="35" viewBox="0 0 35 35" fill="none" xmlns="http://www.w3.org/2000/svg">
<g filter="url(#filter0_d_318_13285)">
<mask id="path-1-inside-1_318_13285" fill="white">
<path fill-rule="evenodd" clip-rule="evenodd" d="M17.5003 27.8553C20.3598 30.7148 24.9961 30.7148 27.8556 27.8553C30.7151 24.9957 30.7151 20.3595 27.8556 17.5L27.8555 17.4999C30.7148 14.6403 30.7147 10.0043 27.8553 7.1448C24.9958 4.28533 20.3598 4.28526 17.5002 7.14457C14.6406 4.28511 10.0045 4.28514 7.14496 7.14466C4.28545 10.0042 4.28542 14.6403 7.14488 17.4999L7.14466 17.5001C4.28511 20.3597 4.28512 24.9959 7.14466 27.8554C10.0042 30.715 14.6404 30.715 17.5 27.8554L17.5002 27.8552L17.5003 27.8553Z"/>
</mask>
<path fill-rule="evenodd" clip-rule="evenodd" d="M17.5003 27.8553C20.3598 30.7148 24.9961 30.7148 27.8556 27.8553C30.7151 24.9957 30.7151 20.3595 27.8556 17.5L27.8555 17.4999C30.7148 14.6403 30.7147 10.0043 27.8553 7.1448C24.9958 4.28533 20.3598 4.28526 17.5002 7.14457C14.6406 4.28511 10.0045 4.28514 7.14496 7.14466C4.28545 10.0042 4.28542 14.6403 7.14488 17.4999L7.14466 17.5001C4.28511 20.3597 4.28512 24.9959 7.14466 27.8554C10.0042 30.715 14.6404 30.715 17.5 27.8554L17.5002 27.8552L17.5003 27.8553Z" fill="#FF7C7C"/>
<path d="M17.5003 27.8553L15.3669 29.9645L15.3729 29.9705L15.379 29.9766L17.5003 27.8553ZM27.8556 17.5L29.9769 15.3786L29.9709 15.3726L29.9648 15.3666L27.8556 17.5ZM27.8555 17.4999L25.7341 15.3787L23.6008 17.5121L25.7463 19.6333L27.8555 17.4999ZM27.8553 7.1448L29.9766 5.02348V5.02348L27.8553 7.1448ZM17.5002 7.14457L15.3789 9.26593L17.5001 11.3871L19.6214 9.26598L17.5002 7.14457ZM7.14496 7.14466L9.26628 9.26598L7.14496 7.14466ZM7.14488 17.4999L9.26732 19.6201L11.3864 17.4988L9.26624 15.3786L7.14488 17.4999ZM7.14466 17.5001L9.26598 19.6214L9.26709 19.6203L7.14466 17.5001ZM7.14466 27.8554L5.02334 29.9767H5.02334L7.14466 27.8554ZM17.5 27.8554L19.6213 29.9768L19.6258 29.9723L17.5 27.8554ZM17.5002 27.8552L19.6336 25.746L17.5079 23.5959L15.3744 25.7384L17.5002 27.8552ZM25.7343 25.734C24.0463 27.4219 21.3096 27.4219 19.6216 25.734L15.379 29.9766C19.4101 34.0077 25.9458 34.0077 29.9769 29.9766L25.7343 25.734ZM25.7343 19.6213C27.4222 21.3093 27.4222 24.046 25.7343 25.734L29.9769 29.9766C34.008 25.9455 34.008 19.4098 29.9769 15.3786L25.7343 19.6213ZM25.7463 19.6333L25.7464 19.6334L29.9648 15.3666L29.9647 15.3665L25.7463 19.6333ZM25.734 9.26612C27.4219 10.954 27.4219 13.6907 25.7341 15.3787L29.9769 19.6211C34.0077 15.59 34.0076 9.05449 29.9766 5.02348L25.734 9.26612ZM19.6214 9.26598C21.3094 7.57815 24.046 7.5782 25.734 9.26612L29.9766 5.02348C25.9456 0.992471 19.4101 0.992365 15.379 5.02316L19.6214 9.26598ZM9.26628 9.26598C10.9542 7.57802 13.6909 7.57801 15.3789 9.26593L19.6215 5.02322C15.5904 0.992221 9.05472 0.99226 5.02364 5.02334L9.26628 9.26598ZM9.26624 15.3786C7.57832 13.6906 7.57833 10.9539 9.26628 9.26598L5.02364 5.02334C0.992569 9.05441 0.99253 15.5901 5.02353 19.6212L9.26624 15.3786ZM9.26709 19.6203L9.26732 19.6201L5.02245 15.3797L5.02222 15.3799L9.26709 19.6203ZM9.26598 25.7341C7.57801 24.0461 7.57801 21.3094 9.26598 19.6214L5.02333 15.3788C0.992221 19.4099 0.992222 25.9456 5.02334 29.9767L9.26598 25.7341ZM15.3787 25.7341C13.6907 27.4221 10.9539 27.4221 9.26598 25.7341L5.02334 29.9767C9.05445 34.0079 15.5902 34.0079 19.6213 29.9767L15.3787 25.7341ZM15.3744 25.7384L15.3742 25.7386L19.6258 29.9723L19.626 29.9721L15.3744 25.7384ZM19.6337 25.7461L19.6336 25.746L15.3668 29.9644L15.3669 29.9645L19.6337 25.7461Z" fill="white" mask="url(#path-1-inside-1_318_13285)"/>
</g>
<rect x="12" y="13" width="1.5" height="2.4" rx="0.75" fill="black"/>
<rect x="19" y="13" width="1.5" height="2.4" rx="0.75" fill="black"/>
<rect x="20.5" y="17" width="1.5" height="8.5" rx="0.75" transform="rotate(90 20.5 17)" fill="black"/>
<defs>
<filter id="filter0_d_318_13285" x="0" y="0" width="35" height="35" filterUnits="userSpaceOnUse" color-interpolation-filters="sRGB">
<feFlood flood-opacity="0" result="BackgroundImageFix"/>
<feColorMatrix in="SourceAlpha" type="matrix" values="0 0 0 0 0 0 0 0 0 0 0 0 0 0 0 0 0 0 127 0" result="hardAlpha"/>
<feOffset/>
<feGaussianBlur stdDeviation="2.5"/>
<feComposite in2="hardAlpha" operator="out"/>
<feColorMatrix type="matrix" values="0 0 0 0 0 0 0 0 0 0 0 0 0 0 0 0 0 0 0.1 0"/>
<feBlend mode="normal" in2="BackgroundImageFix" result="effect1_dropShadow_318_13285"/>
<feBlend mode="normal" in="SourceGraphic" in2="effect1_dropShadow_318_13285" result="shape"/>
</filter>
</defs>
</svg>
