<svg width="42" height="38" viewBox="0 0 42 38" fill="none" xmlns="http://www.w3.org/2000/svg">
<g filter="url(#filter0_d_318_13246)">
<path d="M19.4073 9.91491C20.1152 8.69503 21.8848 8.69503 22.5927 9.91491L31.7509 25.6971C32.4587 26.917 31.5739 28.4419 30.1581 28.4419H11.8419C10.4261 28.4419 9.54126 26.917 10.2491 25.6971L19.4073 9.91491Z" fill="#FCD342"/>
<path d="M8.51929 24.6933L10.2491 25.6971L8.51929 24.6933C7.02888 27.2618 8.90217 30.4419 11.8419 30.4419H30.1581C33.0978 30.4419 34.9711 27.2618 33.4807 24.6933L24.3226 8.91111C22.8439 6.36297 19.1561 6.36296 17.6774 8.91111L8.51929 24.6933Z" stroke="white" stroke-width="4"/>
</g>
<rect x="16" y="18" width="1.5" height="2.4" rx="0.75" fill="black"/>
<rect x="23" y="18" width="1.5" height="2.4" rx="0.75" fill="black"/>
<rect x="24.5" y="22" width="1.5" height="8.5" rx="0.75" transform="rotate(90 24.5 22)" fill="black"/>
<defs>
<filter id="filter0_d_318_13246" x="0.992188" y="0" width="40.0156" height="37.4419" filterUnits="userSpaceOnUse" color-interpolation-filters="sRGB">
<feFlood flood-opacity="0" result="BackgroundImageFix"/>
<feColorMatrix in="SourceAlpha" type="matrix" values="0 0 0 0 0 0 0 0 0 0 0 0 0 0 0 0 0 0 127 0" result="hardAlpha"/>
<feOffset/>
<feGaussianBlur stdDeviation="2.5"/>
<feComposite in2="hardAlpha" operator="out"/>
<feColorMatrix type="matrix" values="0 0 0 0 0 0 0 0 0 0 0 0 0 0 0 0 0 0 0.1 0"/>
<feBlend mode="normal" in2="BackgroundImageFix" result="effect1_dropShadow_318_13246"/>
<feBlend mode="normal" in="SourceGraphic" in2="effect1_dropShadow_318_13246" result="shape"/>
</filter>
</defs>
</svg>
