<?xml version="1.0" encoding="UTF-8"?><svg id="Layer_2" xmlns="http://www.w3.org/2000/svg" viewBox="0 0 120 120"><defs><style>.cls-1{fill:none;}.cls-2{fill:#fff;}.cls-3{fill:#fcd342;}</style></defs><g id="Layer_1-2"><g><rect class="cls-1" width="120" height="120"/><g><g><path class="cls-3" d="M110.99,85.82L72.71,19.4c-5.66-9.81-19.76-9.81-25.42,0L9.01,85.82c-5.7,9.88,1.46,22.13,12.71,22.13H98.28c11.25,0,18.41-12.25,12.71-22.13Z"/><path class="cls-2" d="M98.28,115H21.72c-7.86,0-14.89-4.09-18.81-10.95-3.9-6.82-3.88-14.95,.04-21.77L41.24,15.87c3.92-6.8,10.94-10.87,18.76-10.87s14.84,4.06,18.76,10.87l38.28,66.42c3.93,6.81,3.94,14.95,.04,21.77-3.92,6.85-10.95,10.95-18.81,10.95ZM60,19.09c-1.33,0-4.65,.38-6.66,3.85L15.06,89.36c-2,3.46-.68,6.51-.02,7.66,1.39,2.44,3.89,3.89,6.68,3.89H98.28c2.79,0,5.29-1.45,6.68-3.89,.66-1.15,1.97-4.2-.02-7.66L66.66,22.94c-2-3.48-5.32-3.85-6.66-3.85Z"/></g><path d="M44.51,51.29h0c1.38,0,2.5,1.13,2.5,2.52v3.02c0,1.39-1.12,2.52-2.5,2.52h0c-1.38,0-2.5-1.13-2.5-2.52v-3.02c0-1.39,1.12-2.52,2.5-2.52Z"/><path d="M68.5,51.29h0c1.38,0,2.5,1.13,2.5,2.52v3.02c0,1.39-1.12,2.52-2.5,2.52h0c-1.38,0-2.5-1.13-2.5-2.52v-3.02c0-1.39,1.12-2.52,2.5-2.52Z"/><path d="M71,65.89h0c0,1.39-1.12,2.52-2.5,2.52h-23.99c-1.38,0-2.5-1.13-2.5-2.52h0c0-1.39,1.12-2.52,2.5-2.52h23.99c1.38,0,2.5,1.13,2.5,2.52Z"/></g></g></g></svg>